PathFileType	4	(X/Y/Z)	data/andrienko/jump_jo 3.trc
DataRate	CameraRate	NumFrames	NumMarkers	Units	OrigDataRate	OrigDataStartFrame	OrigNumFrames
400	400	4	71	mm	400	400	456
Frame#	Time	r_asis			l_asis			r_psis			sacrum			l_psis			r_illiac			r_troch			l_illiac			l_troch			r_thigh1			r_thigh2			r_thigh3			r_thigh4			rl_knee			rm_knee			r_shank1			r_shank2			r_shank3			r_shank4			r_heel			rl_ankle			rm_ankle			r_metatarsal5			r_metatarsal1			l_thigh1			l_thigh2			l_thigh3			l_thigh4			ll_knee			lm_knee			l_shank1			l_shank2			l_shank3			l_shank4			l_heel			ll_ankle			lm_ankle			l_metatarsal5			l_metatarsal1			back_down			neck			back_right			back_left			head_up			head_front			head_left			head_right			r_shoulder			r_humerus1			r_humerus2			r_humerus3			rl_elbow			rm_elbow			r_radius1			r_radius2			r_radius3			rl_wrist			rm_wrist			r_hand			l_shoulder			l_humerus1			l_humerus2			l_humerus3			ll_elbow			lm_elbow			l_radius1			l_radius2			l_radius3			ll_wrist			lm_wrist			l_hand		
		X1	Y1	Z1	X2	Y2	Z2	X3	Y3	Z3	X4	Y4	Z4	X5	Y5	Z5	X6	Y6	Z6	X7	Y7	Z7	X8	Y8	Z8	X9	Y9	Z9	X10	Y10	Z10	X11	Y11	Z11	X12	Y12	Z12	X13	Y13	Z13	X14	Y14	Z14	X15	Y15	Z15	X16	Y16	Z16	X17	Y17	Z17	X18	Y18	Z18	X19	Y19	Z19	X20	Y20	Z20	X21	Y21	Z21	X22	Y22	Z22	X23	Y23	Z23	X24	Y24	Z24	X25	Y25	Z25	X26	Y26	Z26	X27	Y27	Z27	X28	Y28	Z28	X29	Y29	Z29	X30	Y30	Z30	X31	Y31	Z31	X32	Y32	Z32	X33	Y33	Z33	X34	Y34	Z34	X35	Y35	Z35	X36	Y36	Z36	X37	Y37	Z37	X38	Y38	Z38	X39	Y39	Z39	X40	Y40	Z40	X41	Y41	Z41	X42	Y42	Z42	X43	Y43	Z43	X44	Y44	Z44	X45	Y45	Z45	X46	Y46	Z46	X47	Y47	Z47	X48	Y48	Z48	X49	Y49	Z49	X50	Y50	Z50	X51	Y51	Z51	X52	Y52	Z52	X53	Y53	Z53	X54	Y54	Z54	X55	Y55	Z55	X56	Y56	Z56	X57	Y57	Z57	X58	Y58	Z58	X59	Y59	Z59	X60	Y60	Z60	X61	Y61	Z61	X62	Y62	Z62	X63	Y63	Z63	X64	Y64	Z64	X65	Y65	Z65	X66	Y66	Z66	X67	Y67	Z67	X68	Y68	Z68	X69	Y69	Z69	X70	Y70	Z70	X71	Y71	Z71
400	0.9975	-212.950	1365.059	480.920	-235.286	1359.073	272.959	-391.285	1431.431	483.317	-396.295	1464.004	391.687	-407.933	1439.540	314.333	-258.647	1432.343	539.568	-284.852	1250.066	583.407	-280.244	1425.152	224.606	-327.570	1243.309	191.041	-289.279	1171.236	589.798	-215.255	1174.935	567.547	-219.981	1047.064	574.420	-279.776	1048.684	589.346	-277.833	907.006	581.631	-254.575	886.798	447.529	-343.953	758.241	576.511	-265.767	758.657	591.233	-267.982	651.579	575.462	-328.734	650.310	564.973	-352.450	490.480	481.108	-303.454	481.999	545.146	-248.151	493.009	457.322	-175.535	383.262	568.748	-134.140	406.131	484.009	-361.550	1128.603	201.336	-286.218	1138.408	186.404	-269.894	1016.493	195.992	-335.874	1007.284	207.661	-298.769	905.055	204.090	-278.965	884.399	335.270	-386.803	750.852	210.607	-317.089	746.640	192.620	-320.473	643.999	209.720	-379.908	641.427	226.413	-411.045	482.304	295.951	-352.507	476.134	239.159	-313.927	494.554	328.824	-230.010	353.236	235.286	-191.888	377.093	314.872	-388.788	1541.213	390.432	-319.977	1881.903	398.950	-367.698	1757.605	503.914	-372.697	1771.254	302.473	-211.421	2139.489	398.067	-83.812	2059.699	388.435	-185.755	2040.041	297.831	-188.860	2046.354	485.979	-222.764	1868.341	553.014	-177.332	1709.548	648.653	-267.643	1784.297	709.266	-242.621	1684.745	722.382	-287.586	1603.454	783.372	-370.336	1625.419	732.135	-230.695	1530.076	685.732	-303.108	1484.165	773.003	-265.081	1437.163	690.100	-308.064	1411.830	599.027	-281.350	1366.829	673.670	-244.551	1367.022	604.522	-239.006	1893.307	241.236	-193.341	1729.983	119.594	-297.371	1800.188	77.399	-267.909	1702.378	51.468	-289.361	1641.006	11.829	-386.617	1644.427	60.244	-298.972	1563.478	149.574	-265.493	1516.347	31.293	-286.772	1466.429	116.276	-290.942	1399.057	106.655	-331.877	1444.547	172.006	-281.108	1398.661	173.740
401	1.0000	-213.697	1367.520	481.075	-236.041	1361.458	273.636	-391.600	1434.481	484.057	-396.702	1467.534	392.160	-408.317	1443.213	314.723	-258.092	1435.409	539.677	-285.741	1252.545	583.998	-280.039	1427.874	225.319	-328.336	1246.114	191.337	-290.470	1173.720	590.120	-216.255	1177.501	568.370	-220.764	1049.612	574.840	-280.760	1050.993	589.240	-277.905	909.800	581.640	-252.897	889.601	447.988	-342.963	760.554	575.972	-264.894	761.355	591.052	-266.721	654.195	575.244	-327.484	652.895	564.584	-350.483	492.359	480.816	-301.280	484.670	544.976	-246.332	495.582	456.905	-172.500	387.296	568.926	-131.484	409.829	483.946	-362.067	1131.291	201.362	-286.670	1141.222	186.692	-270.417	1019.129	196.324	-336.294	1009.996	207.903	-299.270	907.913	204.317	-278.503	887.321	334.960	-386.172	753.233	211.073	-316.662	749.424	192.753	-319.453	646.783	209.914	-378.668	643.874	226.835	-408.347	484.227	296.403	-349.829	478.697	239.365	-311.145	497.230	328.989	-226.299	356.985	234.611	-188.245	380.734	314.178	-388.830	1544.422	390.672	-318.746	1884.584	398.459	-367.220	1760.032	503.814	-371.962	1773.999	302.281	-210.014	2141.807	397.581	-82.491	2061.891	388.085	-184.380	2042.520	297.432	-187.621	2048.813	485.536	-221.907	1870.740	552.966	-176.921	1711.855	648.676	-267.006	1786.827	709.322	-242.017	1687.107	722.346	-287.468	1606.145	783.602	-370.092	1627.935	732.122	-230.589	1532.415	685.917	-303.018	1486.922	773.280	-265.145	1439.774	690.407	-308.254	1414.350	599.438	-281.382	1369.275	674.073	-245.038	1369.243	604.766	-237.508	1895.349	240.763	-192.554	1731.646	119.237	-296.409	1801.972	77.105	-267.223	1704.137	51.197	-288.891	1642.674	11.715	-385.984	1646.558	60.172	-299.042	1565.532	149.837	-265.360	1518.123	31.766	-287.349	1468.445	116.828	-291.817	1400.947	107.218	-332.595	1446.830	172.451	-281.967	1400.941	174.208
402	1.0025	-214.545	1369.879	481.237	-236.813	1363.792	274.317	-391.925	1437.512	484.735	-397.132	1471.013	392.667	-408.660	1446.782	315.168	-257.559	1438.395	539.782	-286.384	1254.907	584.434	-279.827	1430.444	226.014	-329.257	1248.796	191.676	-291.797	1175.824	590.101	-217.282	1180.162	569.192	-222.064	1052.189	575.107	-281.777	1053.341	589.054	-277.835	912.506	581.614	-251.372	892.212	448.330	-341.872	763.011	575.544	-263.834	764.056	590.858	-265.241	656.933	575.089	-326.034	655.366	564.298	-348.614	494.220	480.720	-299.258	487.173	544.572	-244.653	498.102	456.480	-169.516	391.431	569.181	-129.040	413.458	483.722	-362.634	1133.971	201.480	-287.314	1143.799	186.985	-270.871	1021.806	196.669	-336.771	1012.612	208.182	-299.605	910.645	204.416	-277.909	890.000	334.659	-385.448	755.664	211.538	-316.063	752.143	192.875	-318.210	649.400	209.932	-377.352	646.227	227.363	-405.644	486.105	296.671	-347.244	481.236	239.460	-308.504	499.795	329.141	-222.600	360.839	234.015	-184.002	384.864	313.681	-388.851	1547.501	390.941	-317.653	1887.298	398.007	-366.705	1762.355	503.636	-371.172	1776.470	302.121	-208.465	2144.410	397.064	-81.065	2064.181	387.656	-183.006	2044.847	296.987	-186.352	2051.247	485.114	-221.080	1873.019	552.891	-176.419	1714.078	648.769	-266.392	1789.318	709.337	-241.556	1689.601	722.438	-287.355	1608.732	783.817	-369.635	1630.422	732.321	-230.509	1535.012	686.098	-302.940	1489.719	773.555	-265.285	1442.358	690.731	-308.542	1417.020	599.837	-281.575	1371.935	674.519	-245.383	1371.525	605.064	-236.026	1897.265	240.341	-191.671	1733.144	119.029	-295.365	1803.862	76.841	-266.460	1705.711	51.024	-288.298	1644.243	11.698	-385.413	1648.715	60.160	-299.200	1567.652	150.122	-265.492	1519.711	32.296	-287.885	1470.340	117.373	-292.731	1402.852	107.808	-333.321	1449.022	172.951	-282.772	1403.122	174.708
403	1.0050	-215.395	1372.136	481.380	-237.589	1366.062	275.001	-392.240	1440.510	485.405	-397.581	1474.523	393.151	-409.123	1450.259	315.568	-257.026	1441.304	539.903	-287.151	1257.215	584.828	-279.670	1433.050	226.622	-330.129	1251.563	191.997	-293.036	1178.272	590.533	-218.419	1182.526	569.875	-222.994	1054.646	575.356	-282.713	1055.574	588.819	-277.660	915.255	581.601	-249.859	894.795	448.597	-340.519	765.382	575.339	-262.548	766.718	590.603	-263.547	659.469	574.804	-324.491	657.757	564.194	-346.935	495.965	480.910	-297.129	489.776	544.559	-243.078	500.427	456.090	-166.550	395.418	569.291	-126.665	416.812	483.365	-363.285	1136.432	201.617	-287.896	1146.363	187.255	-271.203	1024.402	196.928	-337.104	1015.101	208.392	-299.837	913.499	204.645	-277.462	892.796	334.409	-384.649	757.900	211.949	-315.257	754.852	193.013	-316.819	652.230	210.012	-375.970	648.622	227.560	-402.993	487.958	296.805	-344.598	483.828	239.579	-305.963	502.326	329.262	-218.938	364.485	233.476	-180.532	388.358	313.300	-388.877	1550.492	391.269	-316.474	1889.958	397.505	-366.258	1764.526	503.499	-370.353	1778.763	301.898	-207.048	2146.601	396.617	-79.664	2066.292	387.239	-181.625	2047.062	296.563	-185.039	2053.624	484.703	-220.235	1875.314	552.855	-175.935	1716.350	648.856	-265.692	1791.669	709.356	-241.227	1692.078	722.630	-287.227	1611.333	784.011	-369.344	1632.922	732.361	-230.332	1537.424	686.257	-302.894	1492.414	773.798	-265.408	1444.935	691.020	-308.697	1419.459	600.170	-281.780	1374.454	674.839	-245.787	1373.944	605.381	-234.594	1899.204	239.945	-190.828	1734.586	118.992	-294.134	1805.495	76.536	-265.649	1707.395	50.916	-287.672	1645.698	11.782	-384.847	1650.954	60.151	-299.311	1569.579	150.447	-265.372	1521.160	32.776	-288.394	1472.212	117.963	-293.698	1404.725	108.464	-334.040	1451.154	173.456	-283.560	1405.222	175.165
